<svg xmlns="http://www.w3.org/2000/svg" width="98" height="98" viewBox="0 0 98 98">
	<defs>
		<linearGradient id="gradient" gradientTransform="rotate(110)">
			<stop offset="0%" stop-color="rgb(0, 204, 255)" />
			<stop offset="100%" stop-color="rgb(42, 39, 218)" />
		</linearGradient>
	</defs>
	<path fill="url(#gradient)" d="M71.9293 46.3197C72.5765 46.2273 73.3161 46.2273 73.9633 46.3197C74.4255 45.1178 74.4255 43.731 74.0557 42.5291C73.5934 40.2178 72.9462 38.831 71.5594 39.1083C70.1726 39.3857 70.1726 40.9574 70.6349 43.2687C70.8198 44.2857 71.1897 45.3951 71.9293 46.3197ZM60.4651 48.1687C61.3897 48.631 62.0368 48.9083 62.2217 48.631C62.4066 48.3537 62.3142 48.1687 62.1293 47.7989C61.4821 46.8744 60.65 46.2273 59.633 45.765C57.4142 44.8405 54.9179 45.1178 53.0689 46.597C52.4217 47.0593 51.867 47.7065 51.867 48.0762C51.867 48.1687 51.9594 48.2612 52.2368 48.3537C52.7915 48.4461 54.6406 47.5215 56.767 47.3366C57.9689 47.2442 59.2632 47.5215 60.4651 48.1687ZM58.5236 49.1857C57.5991 49.2782 56.8594 49.648 56.1198 50.2027C55.75 50.5725 55.4726 50.8498 55.4726 51.1273C55.4726 51.2197 55.4726 51.2197 55.5651 51.3121C55.6575 51.4046 55.6575 51.4046 55.75 51.4046C56.0274 51.3121 56.3971 51.2197 56.6746 51.1273C57.9689 50.665 59.2632 50.4801 60.65 50.665C61.2971 50.7574 61.5746 50.7574 61.667 50.5725C61.7594 50.3876 61.7594 50.3876 61.667 50.2027C61.4821 49.7405 60.2802 49.0933 58.5236 49.1857ZM68.0462 53.3461C68.7859 53.8083 69.6179 53.6234 70.1726 52.9762C70.45 52.2366 69.9878 51.4046 69.2482 51.1273H69.1557C68.4161 50.665 67.4915 50.8498 67.0293 51.497C66.7519 51.9593 67.2142 52.8838 68.0462 53.3461ZM73.501 48.4461C72.6689 48.5385 72.1142 49.2782 72.2066 50.1102C72.2066 51.0347 72.7614 51.8669 73.4085 51.8669C74.2406 51.7744 74.7953 51.0347 74.7029 50.2027C74.7029 49.2782 74.2406 48.4461 73.501 48.4461ZM27.367 65.4574C27.1821 65.2725 26.9047 65.2725 26.6274 65.365C26.4425 65.365 26.2575 65.4574 25.9802 65.4574C25.5179 65.4574 25.0557 65.2725 24.7783 64.9027C24.501 64.2555 24.501 63.5159 24.8707 62.8687C24.9632 62.7763 24.9632 62.5914 25.0557 62.4989C25.6103 61.297 26.5349 59.1706 25.5179 57.2291C24.8707 55.8423 23.4839 54.8253 21.9123 54.6405C20.433 54.4555 18.9538 55.0102 17.9368 56.0273C17.3409 56.6634 16.898 57.427 16.6417 58.2601C16.3853 59.0931 16.3224 59.9737 16.4575 60.8347C16.55 61.1121 16.7349 61.2046 16.8274 61.2046C17.1047 61.2046 17.4746 61.0197 17.7519 60.3725C17.7519 60.2801 17.7519 60.2801 17.8443 60.1876C17.9368 59.6329 18.2142 59.1706 18.4915 58.7083C18.8614 58.0612 19.5085 57.6914 20.2482 57.5065C20.9878 57.3215 21.7274 57.5065 22.3746 57.8762C23.4839 58.5234 23.8538 59.9102 23.3915 61.1121C23.0217 62.0366 22.8368 62.9611 22.8368 63.9782C23.0217 66.0121 24.2236 66.8442 25.4255 66.9366C26.2575 67.0291 26.9971 66.6593 27.4594 65.9197C27.367 65.8273 27.367 65.6423 27.367 65.4574Z" />
	<path fill="url(#gradient)" d="M90.8823 61.7588C90.6974 61.0191 90.5125 60.187 90.2351 59.4474C90.0502 58.8002 89.7729 58.0606 89.4955 57.4134C90.605 55.8417 91.0672 53.9002 90.7898 52.0512C90.5125 50.572 89.8653 49.1852 88.7559 48.1681C87.554 46.9663 85.1502 45.672 81.7294 44.6549C81.3597 44.5625 80.0653 44.1927 79.9729 44.1927C79.8805 44.1927 79.8805 39.9398 79.7879 38.1832C79.6955 36.4266 79.4182 34.67 78.9559 32.9134C78.3087 30.5097 77.1069 28.1984 75.3502 26.4417C79.7879 21.8191 82.5615 16.7342 82.5615 12.3889C82.5615 3.97569 72.2069 1.47946 59.5408 6.74928L56.8597 7.85871L51.9597 3.05117C37.4446 -9.70732 -7.85733 40.6795 6.56531 52.8832L9.70871 55.5644C8.87663 57.8757 8.50682 60.372 8.78418 62.7757C9.24644 66.2889 11.003 69.5248 13.6842 71.8361C16.2729 74.2399 19.6937 75.6266 23.2993 75.7191C28.9389 88.6625 41.7898 96.7059 56.8597 97.0757C73.0389 97.538 86.6294 89.9568 92.3615 76.2738C93.471 73.4077 94.1182 70.3568 94.303 67.2134C94.3955 63.4229 92.2691 61.7588 90.8823 61.7588ZM24.5937 71.9285C24.0389 72.021 23.5766 72.1134 23.1143 72.021C18.2143 71.9285 12.9446 67.4908 12.3898 62.221C11.8351 56.4889 14.7937 52.0512 19.971 50.9417C20.7106 50.8493 21.4502 50.8493 22.1898 50.8493C25.1483 51.0342 29.4011 53.253 30.4182 59.6323C31.2502 65.3644 29.8634 71.004 24.5937 71.9285ZM19.1389 47.521C15.9955 48.1681 13.1294 49.9248 11.2804 52.5134C10.0785 51.5889 8.96909 50.572 7.9521 49.37C5.17852 44.1002 11.003 33.7455 15.071 27.9209C25.1483 13.4984 40.9578 2.5889 48.354 4.53041C49.5559 4.90022 53.5314 9.43041 53.5314 9.43041C48.5389 12.2964 43.8238 15.5323 39.3861 19.138C30.2333 26.2568 23.2993 36.4266 19.1389 47.521ZM70.4502 69.8021C70.5426 69.8021 70.6351 69.6172 70.6351 69.5248C70.6351 69.3399 70.5426 69.2474 70.3578 69.2474C65.2729 69.8945 60.1879 69.3399 55.4729 67.7681C56.3049 65.1795 58.3389 66.104 61.4823 66.3813C66.3823 66.6588 71.3747 66.1965 76.0898 64.8097C80.0653 63.7002 83.7634 61.8512 86.9993 59.3549C87.7389 61.0191 88.2011 62.7757 88.571 64.5323C89.1257 64.4398 89.6805 64.5323 90.1427 64.8097C90.7898 65.272 91.3446 66.104 90.9747 68.4153C90.3276 72.5757 88.3861 76.3663 85.4276 79.3248C83.5785 81.3588 81.2672 83.1153 78.771 84.3172C77.3842 85.0568 75.9049 85.6116 74.4257 86.1663C62.9615 89.9568 51.2201 85.7965 47.4294 76.9209C47.1521 76.2738 46.8747 75.5342 46.6898 74.7945C45.1182 68.97 46.4125 61.9436 50.7578 57.5984C51.0351 57.3209 51.2201 56.9512 51.3125 56.5813C51.3125 56.2116 51.1275 55.8417 50.9426 55.5644C49.4634 53.438 44.2861 49.6474 45.303 42.5285C46.0426 37.3512 50.5729 33.7455 54.7333 33.9304C55.103 33.9304 55.4729 33.9304 55.8426 34.0229C57.6917 34.1153 59.2634 34.3927 60.7426 34.3927C63.4238 34.5776 66.1049 33.7455 68.1389 31.8965C68.971 31.1568 69.8955 30.6021 71.005 30.3248C71.3747 30.2323 71.7446 30.2323 72.1143 30.2323C72.7615 30.2323 73.4087 30.4172 73.9634 30.787C76.0898 32.1738 76.3672 35.687 76.5521 38.1832C76.6446 39.6625 76.8294 43.0832 76.8294 44.1002C76.9219 46.4116 77.5691 46.6889 78.771 47.1512L80.9898 47.7984C83.8559 48.6304 85.5201 49.37 86.537 50.4795C87.0917 51.0342 87.4615 51.7738 87.554 52.5134C87.9238 54.9172 85.705 57.9681 79.7879 60.6493C73.5937 63.3304 66.8446 64.4398 60.1879 63.7927C59.8181 63.7927 58.3389 63.6077 58.3389 63.6077C53.9937 63.0531 51.5898 68.6002 54.1785 72.3908C55.8426 74.887 60.3729 76.4587 64.903 76.4587C75.3502 76.4587 83.3937 72.0209 86.3521 68.138C86.4446 68.0455 86.537 67.8606 86.6294 67.7681C86.8144 67.5833 86.6294 67.3984 86.4446 67.5832C84.0408 69.2474 73.2238 75.904 61.5747 73.87C60.6502 73.6852 59.7257 73.4077 58.8937 73.1304C57.8766 72.7606 55.7502 71.7436 55.4729 69.5248C64.6257 72.4832 70.4502 69.8945 70.4502 69.8021ZM37.8143 27.8285C41.1426 23.8531 45.2106 20.5248 49.7407 18.0285C49.8333 17.9361 50.0182 18.1209 49.9257 18.2134C49.4634 19.0455 49.0937 19.97 48.8162 20.8945C48.8162 21.0795 48.9087 21.172 49.0937 21.0795C52.237 19.0455 55.8426 17.7512 59.6333 17.3813C59.8182 17.3813 59.9106 17.5663 59.7257 17.6587C59.0785 18.1209 58.5238 18.6757 58.0615 19.3229C57.9691 19.4153 58.0615 19.5077 58.0615 19.6002H58.154C61.2049 19.6927 64.2559 20.4323 66.937 21.9116C67.0294 21.9116 67.1219 22.0964 67.0294 22.1889C67.0294 22.2813 66.937 22.2813 66.8446 22.2813C56.8597 20.0625 46.4125 22.0964 37.9993 28.0134C37.9069 28.2908 37.6294 28.0134 37.8143 27.8285Z" />
</svg>
